<?xml version="1.0" encoding="UTF-8"?>
<!DOCTYPE svg PUBLIC "-//W3C//DTD SVG 1.1//EN" "http://www.w3.org/Graphics/SVG/1.1/DTD/svg11.dtd">
<!-- Creator: CorelDRAW X7 -->
<svg xmlns="http://www.w3.org/2000/svg" xml:space="preserve" width="297mm" height="210mm" version="1.1" style="shape-rendering:geometricPrecision; text-rendering:geometricPrecision; image-rendering:optimizeQuality; fill-rule:evenodd; clip-rule:evenodd"
viewBox="0 0 29700 21000"
 xmlns:xlink="http://www.w3.org/1999/xlink">
 <defs>
  <style type="text/css">
   <![CDATA[
    .fil1 {fill:#588F6F}
    .fil0 {fill:white}
   ]]>
  </style>
 </defs>
 <g id="Camada_x0020_1">
  <metadata id="CorelCorpID_0Corel-Layer"/>
  <g id="_2001205857824">
   <polygon class="fil0" points="1668,13357 24528,13357 24528,3197 1668,3197 "/>
   <path class="fil1" d="M8059 9843c1226,0 1101,9 1102,-1235 0,-453 24,-386 -208,-585 -13,-1052 -145,-1476 -665,-2149 -397,-513 -1061,-927 -1724,-1097 -1776,-458 -3271,526 -3816,1635 -814,1657 48,3234 1133,3893 992,603 2262,712 3363,146 284,-147 675,-401 815,-608z"/>
   <path class="fil0" d="M3982 8223l2124 10 6 825 -831 0c-50,-509 158,-444 -413,-444 -204,0 -709,-26 -867,10l-19 1377c375,53 1108,10 1521,10 612,0 1376,44 1787,-531 145,-201 124,-358 124,-644 0,-420 44,-1165 -9,-1546l-2124 -10 -6 -825 831 0c50,509 -158,445 413,445 204,0 709,25 867,-10 23,-39 3,35 22,-63l6 -251c-1,-258 16,-886 -9,-1064 -375,-52 -1108,-10 -1521,-10 -612,0 -1376,-44 -1788,531 -145,203 -124,357 -123,644 0,420 -44,1166 9,1546z"/>
   <path class="fil1" d="M19479 9821l0 342c-1055,0 -929,-91 -918,302 5,170 0,118 480,118 1031,0 1010,-114 1010,-858 0,-134 25,-1787 -18,-1830 -44,-43 -503,-18 -611,-18 -365,0 -811,15 -854,383 -38,323 -2,887 -3,1237 -1,409 -194,324 914,324z"/>
   <path class="fil1" d="M16990 7185l0 692c-364,0 -914,-34 -914,477l0 1397c0,63 6,70 70,70 592,0 1416,124 1416,-477l0 -2159c0,-116 -140,-70 -502,-70 -63,0 -70,7 -70,70z"/>
   <path class="fil1" d="M14156 8843l-568 -12 -2 570 -342 0 0 -1866 342 0 1 558 569 11c25,-1073 50,-994 -167,-991l-739 4c-758,35 -578,574 -578,1338l-2 1196c-3,224 -57,169 555,170 965,0 952,-156 931,-978z"/>
   <path class="fil1" d="M14856 7890c-634,85 -481,532 -482,1251 -1,348 -8,475 252,605 228,114 1191,195 1232,-330 21,-256 2,-594 2,-859 0,-348 7,-475 -253,-605 -193,-97 -526,-92 -751,-62z"/>
   <path class="fil1" d="M20749 7890c-634,85 -482,532 -482,1251 -1,348 -8,475 252,605 227,114 1191,195 1232,-330 20,-256 1,-594 2,-859 0,-348 7,-475 -253,-605 -193,-97 -526,-92 -751,-62z"/>
   <path class="fil1" d="M11453 7890c-635,85 -482,532 -483,1251 0,348 -7,475 253,605 227,114 1190,195 1232,-330 20,-256 1,-594 1,-859 1,-348 7,-475 -252,-605 -194,-97 -526,-92 -751,-62z"/>
   <path class="fil1" d="M22883 9059l0 342 -343 0c0,-244 63,-191 -570,-187 -3,149 -15,384 -5,514 9,117 10,96 146,95 416,-1 948,55 1199,-146 211,-167 146,-556 147,-895 1,-183 41,-143 -377,-143 -180,0 -360,0 -540,0l0 -342 343 0c0,243 -63,191 570,187 17,-749 99,-607 -424,-607 -336,0 -679,-44 -917,143 -210,166 -145,560 -146,896 -1,183 -41,143 377,143 180,-1 360,0 540,0z"/>
   <path class="fil1" d="M9345 7947l0 1804c0,116 140,70 503,70 62,0 68,-7 68,-70l0 -1454 342 0c3,184 -110,220 477,190l94 -10c8,-454 -189,-614 -678,-594 -66,2 -113,13 -171,17 -110,8 -37,-23 -134,-23 -362,0 -501,-46 -501,70z"/>
   <path class="fil0" d="M8094 9831c83,-116 210,-212 284,-360l-132 0 0 -1143 381 0 2 730c168,-295 271,-650 310,-1035 -240,-78 -533,-106 -803,-59 -560,98 -423,567 -424,1355 0,328 108,419 382,512z"/>
   <path class="fil1" d="M17777 7947l0 1804c0,116 140,70 502,70 63,0 70,-7 70,-70l0 -1804c0,-116 -140,-70 -502,-70 -63,0 -70,7 -70,70z"/>
   <path class="fil1" d="M15083 7597l376 196c68,-55 545,-676 580,-765l-375 -196c-69,54 -545,676 -581,765z"/>
   <polygon class="fil0" points="11542,9401 11885,9401 11885,8297 11543,8297 "/>
   <polygon class="fil0" points="14945,9401 15288,9401 15288,8297 14945,8297 "/>
   <polygon class="fil0" points="16647,9401 16990,9401 16990,8297 16647,8297 "/>
   <polygon class="fil0" points="20838,9401 21181,9401 21181,8297 20838,8297 "/>
   <polygon class="fil0" points="19136,9401 19480,9401 19479,8297 19137,8297 "/>
   <path class="fil1" d="M17777 7185c0,623 -120,502 502,502 116,0 70,-140 70,-502 0,-116 -140,-70 -502,-70 -63,0 -70,7 -70,70z"/>
  </g>
 </g>
</svg>
